<?xml version="1.0" encoding="UTF-8"?>
<svg id="Layer_1" data-name="Layer 1" xmlns="http://www.w3.org/2000/svg" viewBox="0 0 1730.01 518.96">
  <rect x="275.81" y="87.8" width="1446.2" height="343.7" rx="30" ry="30" fill="#fff" stroke="#2c5475" stroke-miterlimit="10" stroke-width="16"/>
  <path d="M1041.39,223.82c4.21.18,7.26,1.43,9.68,1.7l-1.88,10.13c-1.52-3.41-4.93-5.02-9.23-5.02-3.85,0-7.89,2.33-7.89,7.98,0,8.42,13.98,10.75,13.98,24.02,0,9.5-6.72,15.06-14.88,16.67l-1.52,7.26h-6.45l1.43-6.81c-5.02-.27-7.62-1.79-11.02-2.24l1.88-10.75c1.79,3.58,6.9,6,11.38,6,4.75,0,8.69-3.5,8.69-8.78,0-8.42-13.8-10.75-13.8-23.84,0-9.23,5.83-14.16,13.35-15.77l1.34-7.35h6.36l-1.43,6.81Z" fill="#08cf2b"/>
  <circle cx="259.48" cy="259.48" r="251.48" fill="#fff" stroke="#2c5475" stroke-miterlimit="10" stroke-width="16"/>
  <g>
    <path d="M648.26,336.56c-14.3,0-24.55-3.4-30.75-10.21-6.2-6.8-9.3-15.8-9.3-27,0-2.93.26-6.46.78-10.6.52-4.14,1.2-9.13,2.07-14.99,1.38-8.44,2.41-15.98,3.1-22.61.69-6.63,1.03-13.91,1.03-21.84,0-9.13-.26-16.54-.78-22.23-2.93,1.72-5.08,2.58-6.46,2.58-2.76,0-4.13-3.1-4.13-9.3,0-4.82,1.07-8.92,3.23-12.28,2.15-3.36,5.73-6.5,10.72-9.43,4.99-3.1,11.33-5.77,18.99-8.01,7.66-2.24,15.89-3.36,24.68-3.36,14.3,0,25.15,3.27,32.56,9.82,7.4,6.55,11.11,15.16,11.11,25.84,0,6.89-1.47,13.27-4.39,19.12-2.93,5.86-7.07,11.03-12.4,15.51,21.53,3.45,32.3,15.85,32.3,37.21,0,11.54-3.28,22.05-9.82,31.53-6.55,9.47-15.42,16.88-26.62,22.22-10.85,5.34-22.83,8.01-35.92,8.01ZM658.59,307.88c7.75,0,14.77-1.08,21.06-3.23,6.29-2.15,11.33-5.3,15.12-9.43,3.79-4.13,5.69-8.96,5.69-14.47,0-7.06-2.5-12.05-7.49-14.99-5-2.93-10.77-4.39-17.32-4.39-2.76,0-6.2.26-10.34.77-1.72.35-3.71.52-5.94.52-3.79,0-6.94-1.55-9.43-4.65-2.5-3.1-3.75-6.98-3.75-11.63,0-3.27,1.46-5.34,4.39-6.2,21.02-5.51,31.53-15.07,31.53-28.69,0-10.85-7.49-16.28-22.48-16.28-5.52,0-12.32.95-20.42,2.84,0,8.44-.43,17.27-1.29,26.49-.86,9.22-2.16,18.82-3.88,28.81-1.03,6.89-1.85,12.71-2.46,17.45-.6,4.74-.9,8.57-.9,11.5,0,9.3,2.33,15.89,6.98,19.77,4.65,3.88,11.63,5.82,20.93,5.82Z" fill="#08cf2b"/>
    <path d="M773.85,336.82c-8.62,0-15.29-2.5-20.03-7.49-4.74-4.99-7.11-12.23-7.11-21.71,0-6.72.95-13.61,2.84-20.67.86-2.93,1.55-5.85,2.07-8.79.52-2.93.77-5.85.77-8.79,0-7.58-2.33-12.49-6.98-14.73-4.48-2.41-6.72-4.99-6.72-7.75s1.16-5.51,3.49-8.27c2.33-2.76,5.21-5.04,8.66-6.85,3.44-1.81,6.89-2.71,10.34-2.71,9.82,0,14.73,8.01,14.73,24.04,0,5.17-.39,9.95-1.16,14.34-.77,4.4-1.68,8.57-2.71,12.53-.69,2.76-1.25,5.52-1.68,8.27-.43,2.76-.65,5.17-.65,7.23,0,8.62,4.22,12.92,12.66,12.92,7.92,0,15.33-4.22,22.23-12.66,6.89-8.44,12.57-20.24,17.06-35.41l-.26-4.91c-.35-8.61,1.16-15.16,4.52-19.64,3.36-4.48,8.31-6.72,14.86-6.72,5.69,0,8.53,1.81,8.53,5.43,0,1.21-.22,2.76-.64,4.65-.43,1.9-1.08,4.14-1.94,6.72-1.72,6.38-3.19,13.14-4.39,20.29-1.21,7.15-1.81,13.74-1.81,19.77,0,6.72,1.03,12.28,3.1,16.67,2.07,4.39,5.94,7.36,11.63,8.91,1.55.18,2.8.64,3.75,1.42.94.77,1.42,2.37,1.42,4.78,0,4.13-1.72,8.18-5.17,12.15-3.45,3.96-8.44,5.94-14.99,5.94-12.58,0-18.87-8.87-18.87-26.62,0-3.1.26-7.75.78-13.96l-.52-.26c-10.85,27.91-26.79,41.86-47.81,41.86Z" fill="#08cf2b"/>
    <path d="M882.39,404.79c-7.07,0-13.14-1.9-18.22-5.69-5.08-3.79-7.62-8.88-7.62-15.25,0-5,1.51-9.26,4.52-12.79,3.02-3.53,6.76-5.3,11.24-5.3,2.07,0,3.53.34,4.39,1.03.86.69,1.55,1.46,2.07,2.32,1.38,2.24,2.97,4.18,4.78,5.82,1.81,1.64,4.26,2.46,7.36,2.46,4.13,0,8.14-1.47,12.02-4.4s7.45-6.29,10.72-10.08c2.93-3.27,6.46-7.97,10.6-14.08,4.13-6.12,8.27-13.05,12.4-20.8-3.79,3.27-7.33,5.64-10.6,7.11-3.27,1.46-6.38,2.2-9.3,2.2-3.62,0-7.15-1.34-10.6-4.01-3.45-2.67-5.6-7.71-6.46-15.12-.52-5.69-1.51-11.97-2.97-18.86-1.47-6.89-3.28-13.57-5.43-20.03-2.16-6.46-4.78-11.93-7.88-16.41-1.21-2.07-2.59-3.62-4.13-4.65-1.55-1.03-3.79-1.72-6.72-2.07-2.07-.17-3.41-.77-4.01-1.81-.6-1.03-.9-2.67-.9-4.91,0-6.2,1.72-11.2,5.17-14.99,3.45-3.79,8.1-5.69,13.96-5.69,7.06,0,12.15,2.71,15.25,8.14,3.1,5.43,5.77,12.02,8.01,19.77.86,3.1,1.76,7.2,2.71,12.28.94,5.08,1.81,10.55,2.59,16.41.77,5.86,1.33,11.46,1.68,16.8.17,3.79,2.33,5.69,6.46,5.69,5.51,0,10.76-1.72,15.76-5.17,4.99-3.44,9.09-7.92,12.28-13.44,3.18-5.51,4.78-11.28,4.78-17.32,0-3.45-.43-6.55-1.29-9.3-.86-2.76-2.33-5.17-4.39-7.24-1.72-2.07-3.1-3.75-4.13-5.04-1.03-1.29-1.55-2.8-1.55-4.52,0-2.93,1.38-5.69,4.14-8.27,2.75-2.58,6.07-4.74,9.95-6.46,3.88-1.72,7.28-2.59,10.21-2.59,5.17,0,8.61,2.46,10.34,7.37,1.72,4.91,2.15,10.29,1.29,16.15-1.03,8.1-3.1,17.66-6.2,28.68-3.1,11.03-7.11,22.57-12.02,34.63-4.91,12.06-10.51,23.73-16.8,35.02-6.29,11.28-12.97,21.15-20.03,29.59-6.03,7.41-12.75,13.39-20.16,17.96-7.41,4.56-15.16,6.85-23.26,6.85Z" fill="#08cf2b"/>
  </g>
  <g>
    <path d="M1075.19,322.02c3.1-8.53,9.31-28.17,15.77-46.78l43.16-133.62h7.23l36.96,133.88,88.39-133.88h7.75l-8.27,137.76c-1.29,18.61-1.03,30.75-.52,42.64h-32.05c1.03-7.75,2.84-19.64,4.13-35.41l8.01-77.28-71.85,114.49h-8.01l-29.21-114.75-23,79.35c-3.88,13.44-7.24,25.07-9.05,33.6h-29.46Z" fill="#2c5475"/>
    <path d="M1362.57,201.84c30.24,0,49.62,23,49.62,52.21,0,38.77-27.92,69.78-65.91,69.78-30.24,0-49.88-22.74-49.88-52.72,0-38.77,29.72-69.27,66.16-69.27ZM1349.39,300.57c19.38,0,36.7-19.64,36.7-44.97,0-18.09-10.86-30.5-26.88-30.5-19.64,0-36.7,19.38-36.7,44.2,0,18.61,10.6,31.27,26.88,31.27Z" fill="#2c5475"/>
    <path d="M1426.91,322.02c2.07-8.79,3.88-17.06,5.43-26.36l13.18-75.47h-11.37c3.36-4.91,7.5-12.4,9.31-16.02h28.95l-4.65,25.33c9.56-18.09,24.04-27.39,38.25-27.39,5.17,0,7.23,1.03,9.3,1.03l-5.17,28.95c-2.84-2.59-7.75-3.88-13.18-3.88-15.25,0-28.69,18.35-31.53,35.15l-5.94,32.31c-1.55,8.79-2.84,16.54-3.88,26.36h-28.69Z" fill="#2c5475"/>
    <path d="M1605.49,317.88c-6.72.52-19.64,5.94-35.41,5.94-34.38,0-53.5-23-53.5-53.5,0-38.25,28.95-68.23,63.32-68.23,32.3,0,44.45,25.59,44.45,47.55,0,4.39-.52,8.79-1.81,13.7-15.25,3.88-52.21,6.72-80.12,5.69,1.03,23.52,14.47,33.34,35.67,33.34,11.37,0,22.23-2.33,31.53-8.53l-4.14,24.04ZM1599.03,247.07c.77-12.4-5.94-25.07-21.45-25.07-13.7,0-27.66,10.08-33.08,28.17,20.42.77,45.23-.78,54.53-3.1Z" fill="#2c5475"/>
  </g>
  <path d="M430.62,194.14c-.07-4.55-3.42-8.22-7.54-8.22h-170.76s-.02,0-.03,0h-53.88l-12.68-58.49c-.81-3.76-3.85-6.41-7.34-6.41h-82.82c-4.17,0-7.55,3.74-7.55,8.36s3.38,8.36,7.55,8.36h76.86l48.88,225.5c.81,3.76,3.85,6.41,7.34,6.41h20.57c-2.8,3.12-4.53,7.41-4.53,12.15,0,9.52,6.97,17.24,15.57,17.24s15.57-7.72,15.57-17.24c0-4.74-1.73-9.03-4.53-12.15h67.57c-2.8,3.12-4.53,7.41-4.53,12.15,0,9.52,6.97,17.24,15.57,17.24s15.57-7.72,15.57-17.24c0-4.74-1.73-9.03-4.53-12.15h23.44c3.43,0,6.43-2.56,7.3-6.23l39.04-164.51c.39-1.63.31-3.27-.14-4.75ZM403.6,247.56h-49.35l5.57-44.92h54.44l-10.66,44.92ZM391.45,298.74h-43.55l4.28-34.47h47.46l-8.18,34.47ZM288.24,352.93l-6.69-37.47h49.03l-4.65,37.47h-37.7ZM278.57,298.74l-6.15-34.47h64.51l-4.28,34.47h-54.08ZM215.38,264.27h41.65l6.15,34.47h-40.33l-7.47-34.47ZM269.44,247.56l-8.01-44.92h83.15l-5.57,44.92h-69.56ZM246.03,202.64l8.01,44.92h-42.29l-9.74-44.92h44.01ZM226.47,315.45h39.69l6.69,37.47h-38.25l-8.12-37.47ZM378.59,352.93h-37.42l4.65-37.47h41.66l-8.89,37.47Z" fill="#08cf2b"/>
</svg>